<svg xmlns="http://www.w3.org/2000/svg" viewBox="0 0 32 32" shape-rendering="crispEdges"><defs><radialGradient id="g" cx="0.15" cy="0" r="1"><stop offset="0" stop-color="#16244A"/><stop offset="0.7" stop-color="#080D18"/></radialGradient></defs><rect width="32" height="32" rx="7" fill="url(#g)" shape-rendering="geometricPrecision"/><g fill="#5EEAD4"><rect x="2.80" y="10.00" width="2.4" height="2.4"/><rect x="5.20" y="10.00" width="2.4" height="2.4"/><rect x="7.60" y="10.00" width="2.4" height="2.4"/><rect x="12.40" y="10.00" width="2.4" height="2.4"/><rect x="14.80" y="10.00" width="2.4" height="2.4"/><rect x="17.20" y="10.00" width="2.4" height="2.4"/><rect x="22.00" y="10.00" width="2.4" height="2.4"/><rect x="24.40" y="10.00" width="2.4" height="2.4"/><rect x="26.80" y="10.00" width="2.4" height="2.4"/><rect x="2.80" y="12.40" width="2.4" height="2.4"/><rect x="12.40" y="12.40" width="2.4" height="2.4"/><rect x="17.20" y="12.40" width="2.4" height="2.4"/><rect x="22.00" y="12.40" width="2.4" height="2.4"/><rect x="26.80" y="12.40" width="2.4" height="2.4"/><rect x="2.80" y="14.80" width="2.4" height="2.4"/><rect x="5.20" y="14.80" width="2.4" height="2.4"/><rect x="7.60" y="14.80" width="2.4" height="2.4"/><rect x="12.40" y="14.80" width="2.4" height="2.4"/><rect x="17.20" y="14.80" width="2.4" height="2.4"/><rect x="22.00" y="14.80" width="2.4" height="2.4"/><rect x="24.40" y="14.80" width="2.4" height="2.4"/><rect x="26.80" y="14.80" width="2.4" height="2.4"/><rect x="7.60" y="17.20" width="2.4" height="2.4"/><rect x="12.40" y="17.20" width="2.4" height="2.4"/><rect x="17.20" y="17.20" width="2.4" height="2.4"/><rect x="22.00" y="17.20" width="2.4" height="2.4"/><rect x="26.80" y="17.20" width="2.4" height="2.4"/><rect x="2.80" y="19.60" width="2.4" height="2.4"/><rect x="5.20" y="19.60" width="2.4" height="2.4"/><rect x="7.60" y="19.60" width="2.4" height="2.4"/><rect x="12.40" y="19.60" width="2.4" height="2.4"/><rect x="14.80" y="19.60" width="2.4" height="2.4"/><rect x="17.20" y="19.60" width="2.4" height="2.4"/><rect x="22.00" y="19.60" width="2.4" height="2.4"/><rect x="24.40" y="19.60" width="2.4" height="2.4"/><rect x="26.80" y="19.60" width="2.4" height="2.4"/></g></svg>
